<svg xmlns="http://www.w3.org/2000/svg" width="136.209" height="208.288" viewBox="0 0 136.209 208.288"><defs><style>.a{fill:#b28b67;}.a,.b,.c,.d,.e,.f,.g,.h,.i,.j{fill-rule:evenodd;}.b{fill:#191847;}.c{fill:#997659;}.d{fill:#e4e4e4;}.e{fill:#69a1ac;}.f{fill:#89c5cc;}.g{fill:#e87613;}.h{fill:#dde3e9;}.i{fill:#ff9b21;}.j{fill:rgba(0,0,0,0.1);}</style></defs><g transform="translate(0 0)"><g transform="matrix(0.966, -0.259, 0.259, 0.966, 44.678, 5.814)"><g transform="translate(0.058 1.017)"><path class="a" d="M4.282,17.715a13.843,13.843,0,0,1-3.734-10C1.326-3.274,16.764-.856,19.767,4.691s2.646,19.62-1.235,20.612c-1.548.4-4.845-.573-8.2-2.578L12.437,37.5H0Z" transform="translate(0 0)"/></g><path class="b" d="M11.01,9.949q.714,9.86,3.778,9.86c3.064,0,5.664-1.928,7.008-1.928.98,0,.761,1.216.111,2.117-.536.744-3.146,1.46-3.146,2.613s2.062.261,2.062.945c0,1.131.362,3.257-1.618,3.257-2,0-7.751-.724-8.736-3.672q-.953-2.854-1.233-11.829a3.163,3.163,0,0,0-.371-.022,3.1,3.1,0,0,0-3.109,3.082,3.059,3.059,0,0,0,.937,2.2c-.719,1.007-1.526,2.058-2.45,3.143C.774,17.655-1.8,11.613,1.592,5.808A7.654,7.654,0,0,1,7.161.741a9.1,9.1,0,0,1,5.92-.432,19.4,19.4,0,0,1,7.489,1.978c0,3.275-.641,4.246-6.108,4.16A10.04,10.04,0,0,0,11.01,9.949Z" transform="translate(0 0)"/></g><g transform="translate(0 84.832)"><path class="c" d="M145.152,0l25.435,64.128,17.059,54.215h6.736L168.3,0Z" transform="translate(-84.602)"/><path class="a" d="M81.652,0c-.271,22.535-4.221,52.875-4.852,54.28q-.631,1.4-43.571,35.727l4.64,4.946Q88.534,65.525,90.878,61.6c2.345-3.925,9.978-40.042,16.106-61.6Z" transform="translate(-26.224)"/><g transform="matrix(0.643, 0.766, -0.766, 0.643, 8.205, 85.658)"><path class="d" d="M.87,3.146A11.127,11.127,0,0,0,0,6.62a26,26,0,0,0,.467,4.091H29.7q1.139-3.767-1.315-4.067T24.3,6.1L10.717.045a.518.518,0,0,0-.684.262l-.006.013L9.153,2.439A9.319,9.319,0,0,1,5.46,3.5a8.363,8.363,0,0,1-3.188-.932h0A1.036,1.036,0,0,0,.9,3.077Q.883,3.111.87,3.146Z" transform="translate(0 0)"/></g><g transform="translate(99.416 112.746)"><path class="d" d="M1.953,24.086a11.127,11.127,0,0,0-.87,3.474,26,26,0,0,0,.467,4.091H30.779q1.139-3.767-1.315-4.067t-4.078-.542L11.8,20.986a.518.518,0,0,0-.684.262l-.006.013-.873,2.118a9.319,9.319,0,0,1-3.693,1.06,8.363,8.363,0,0,1-3.188-.932h0a1.036,1.036,0,0,0-1.374.51Q1.966,24.052,1.953,24.086Z" transform="translate(-1.083 -20.941)"/></g><path class="e" d="M158.662,112.759,190.69,109.3,166.954,0H138.267Z" transform="translate(-81.011 0)"/><path class="f" d="M47.077,82.027,68.086,106.8q33.192-36.112,38.7-47.126T116.694,0H84.4Q82,42.808,81.16,44.8T47.077,82.027Z" transform="translate(-33.447)"/></g><g transform="translate(11.718 38.423) rotate(-10)"><path class="a" d="M81.163,0l16.53,12.079a44.615,44.615,0,0,1,11.237,4.493c.711.644,1.57,1.949-1.377,1.723s-6.057-.331-6.463.67,1.377,2.2.555,3.545q-.822,1.35-7.766-6.768L77.508,8.988ZM17.695.417,28.524.459Q18.494,32.679,17.695,34.65c-1.2,2.958,1.338,7.461,2.424,9.881-3.534,1.574-3.158-4.254-7.616-2.19-4.069,1.884-7.165,5.3-11.867,2.411C.057,44.4-.576,43.06.954,42.016c3.813-2.6,9.308-7.155,10.05-8.654Q12.523,30.3,17.695.417Z" transform="translate(0 49.362)"/><path class="g" d="M0,1.152,4.4,0c17.809,12.788,27,39.545,48.574,52.258l-4.359,6.455C13.013,57.455,1.364,24.856,0,1.152Z" transform="translate(48.57 3.413) rotate(5)"/><path class="h" d="M0,58.786H39.65c1.812,0,1.471-2.6,1.208-3.917-3.023-15.161-14.822-31.5-14.822-53.085L14.6,0C5.139,15.139,1.868,33.779,0,58.786Z" transform="translate(28.936 1.812)"/><path class="i" d="M18.525,16.693a6.533,6.533,0,0,1-3.946-3.324c-4.18-7.506-2.671-11.638,1.8-13s8.451,1.44,15.569,1.44a7.2,7.2,0,0,1,1.064.072l3.58.2Q52,54.051,45.088,71.427H13.881A105.66,105.66,0,0,1,8.573,82.255H.069Q-1.131,43.632,18.525,16.693Z" transform="translate(10.729 0)"/><path class="j" d="M6.8,0q1.472,12.257,4.785,17.792H0Q3.235,10.285,6.8,0Z" transform="translate(24.61 53.635)"/></g></g></svg>