<svg xmlns="http://www.w3.org/2000/svg" width="563.999" height="337.167" viewBox="0 0 563.999 337.167"><defs><style>.a{fill:#5e7d31;}.b{fill:#fff;}.c{fill:#f2f2f2;}.d{fill:#99c76e;}.e{fill:#6c63ff;}.f{fill:#ffb8b8;}.g{fill:#2f2e41;}.h{fill:#3f3d56;}.i{fill:#ccc;}</style></defs><g transform="translate(0 0)"><path class="a" d="M825.32,645.621c-7.221-6.1-11.607-15.74-10.456-25.123s8.274-18.009,17.515-20,19.775,3.523,22.582,12.55c1.545-17.4,3.325-35.537,12.578-50.358,8.378-13.42,22.89-23.023,38.617-24.74s32.286,4.77,42.094,17.184,12.21,30.46,5.34,44.711c-5.061,10.5-14.384,18.312-24.153,24.668a155.879,155.879,0,0,1-106.611,23.323Z" transform="translate(-393.509 -312.241)"/><path class="b" d="M955.662,545.816a257.2,257.2,0,0,0-75.575,102.192c-.721,1.766,2.148,2.535,2.86.789a254.347,254.347,0,0,1,74.811-100.883c1.481-1.206-.629-3.293-2.1-2.1Z" transform="translate(-416.474 -314.978)"/><path class="a" d="M346.56,621.189c9.918-8.38,15.942-21.619,14.362-34.506s-11.365-24.735-24.057-27.472-27.161,4.839-31.016,17.238c-2.122-23.9-4.566-48.81-17.275-69.166-11.508-18.432-31.439-31.622-53.04-33.981s-44.345,6.552-57.816,23.6-16.77,41.836-7.335,61.411c6.951,14.42,19.756,25.151,33.174,33.882a214.1,214.1,0,0,0,146.43,32.034" transform="translate(-165 -289.467)"/><path class="b" d="M215.628,484.107a350.3,350.3,0,0,1,48.818,48.476,355.3,355.3,0,0,1,38.5,56.977,353.856,353.856,0,0,1,16.486,34.907c.99,2.426-2.95,3.482-3.929,1.083a347.713,347.713,0,0,0-31.771-60.113A349.893,349.893,0,0,0,241.12,512.8a349.085,349.085,0,0,0-28.373-25.811c-2.034-1.656.864-4.524,2.881-2.881Z" transform="translate(-181.55 -293.227)"/><path class="c" d="M661.12,526.386H424.5V283.607a93.782,93.782,0,0,1,93.676-93.676h49.269a93.782,93.782,0,0,1,93.676,93.676Z" transform="translate(-256.273 -189.931)"/><path class="d" d="M611.851,526.387H424.5V283.608a92.951,92.951,0,0,1,17.89-55.067c.43-.587.86-1.165,1.3-1.738a93.654,93.654,0,0,1,19.937-19.351c.428-.311.857-.617,1.293-.923a93.455,93.455,0,0,1,20.4-10.67c.428-.162.865-.325,1.3-.481a93.365,93.365,0,0,1,20.167-4.756c.426-.058.864-.1,1.3-.149a94.835,94.835,0,0,1,20.165,0c.436.046.874.091,1.306.15a93.347,93.347,0,0,1,20.162,4.755c.436.156.873.319,1.3.482a93.222,93.222,0,0,1,20.166,10.512c.435.3.871.6,1.3.911a94.645,94.645,0,0,1,11.918,10.09,93.542,93.542,0,0,1,8.249,9.433c.441.571.87,1.15,1.3,1.735a92.951,92.951,0,0,1,17.89,55.068Z" transform="translate(-256.273 -189.932)"/><circle class="e" cx="10.372" cy="10.372" r="10.372" transform="translate(329.972 207.124)"/><path class="f" d="M588.235,491.151h-7.948l-3.781-30.656h11.731Z" transform="translate(-202.772 -161.968)"/><path class="g" d="M568.346,504.28h15.328v9.651H558.7a9.651,9.651,0,0,1,9.651-9.651Z" transform="translate(-196.507 -177.368)"/><path class="f" d="M649.235,491.151h-7.948l-3.781-30.656h11.731Z" transform="translate(-224.227 -161.968)"/><path class="g" d="M629.346,504.28h15.328v9.651H619.7a9.651,9.651,0,0,1,9.651-9.651Z" transform="translate(-217.963 -177.368)"/><path class="f" d="M697.446,482.626a6.964,6.964,0,0,1,2.924-10.271l27.017-74.465,13.294,7.256-30.848,71.162a7,7,0,0,1-12.388,6.319Z" transform="translate(-351.852 -263.075)"/><path class="f" d="M808.778,501.742A6.964,6.964,0,0,1,806.9,491.23l-8.369-78.772,15.129.691,3.478,77.482a7,7,0,0,1-8.363,11.111Z" transform="translate(-387.83 -268.199)"/><circle class="f" cx="15.922" cy="15.922" r="15.922" transform="translate(380.891 89.178)"/><path class="e" d="M788.136,474.407h-48l.058-.374c.086-.558,8.555-56.036,2.309-74.186a7.658,7.658,0,0,1,3.935-9.454h0c8.928-4.2,26.065-9.381,40.53,3.182a18.3,18.3,0,0,1,6.132,15.167Z" transform="translate(-367.289 -258.779)"/><path class="e" d="M742.629,429.084,721.018,424.7l10.13-24.006a9.074,9.074,0,0,1,17.572,4.536Z" transform="translate(-360.566 -261.667)"/><path class="e" d="M796.249,438.137l-1.3-29.783c-.985-5.6,2.22-10.891,7.149-11.756s9.745,3.021,10.734,8.661l4.883,27.829Z" transform="translate(-386.507 -262.579)"/><path class="g" d="M785.135,517.049c7.724,29.417,8.567,66.817,6.483,107.614l-10.372-1.3-18.8-77.793-10.372,79.09-11.669-.648c-3.486-42.805-6.88-79.553-1.3-103.724Z" transform="translate(-365.886 -304.986)"/><path class="g" d="M777.225,351.739c-2.97,3.164-8.487,1.466-8.874-2.857a5.213,5.213,0,0,1,.007-1.009c.2-1.915,1.306-3.653,1.041-5.675a2.976,2.976,0,0,0-.545-1.393c-2.367-3.17-7.923,1.418-10.157-1.452-1.37-1.759.24-4.53-.811-6.5-1.387-2.6-5.5-1.315-8.074-2.736-2.867-1.581-2.7-5.98-.808-8.656,2.3-3.263,6.337-5,10.323-5.255a27.69,27.69,0,0,1,11.664,2.276c4.227,1.647,8.42,3.924,11.021,7.642,3.164,4.521,3.468,10.6,1.886,15.884C782.936,345.227,779.651,349.155,777.225,351.739Z" transform="translate(-369.921 -234.333)"/><path class="h" d="M744.885,708.736H266.267a.772.772,0,1,1,0-1.544H744.885a.772.772,0,1,1,0,1.544Z" transform="translate(-200.347 -371.865)"/><path class="b" d="M585.989,493.858H501.714A4.191,4.191,0,0,1,497.5,489.7V301.59a4.191,4.191,0,0,1,4.214-4.159h84.276a4.191,4.191,0,0,1,4.214,4.159V489.7A4.191,4.191,0,0,1,585.989,493.858Z" transform="translate(-281.949 -227.741)"/><rect class="i" width="92.703" height="1.297" transform="translate(215.551 130.556)"/><rect class="i" width="92.703" height="1.297" transform="translate(215.875 204.531)"/><rect class="i" width="1.297" height="197.076" transform="translate(244.724 69.69)"/><rect class="i" width="1.297" height="197.076" transform="translate(277.137 69.69)"/></g></svg>