<svg xmlns="http://www.w3.org/2000/svg" xmlns:xlink="http://www.w3.org/1999/xlink" width="144" height="26.062" viewBox="0 0 144 26.062"><defs><style>.a{fill:#ffb73b;}.b{fill:#99c76e;}.c{fill:#ffd361;}.d{fill:#5e7d31;}.e{fill:url(#a);}</style><linearGradient id="a" y1="0.5" x2="1" y2="0.5" gradientUnits="objectBoundingBox"><stop offset="0" stop-color="#99c76e"/><stop offset="1" stop-color="#5e7d31"/></linearGradient></defs><g transform="translate(0 0)"><path class="a" d="M40.81,50.292l33.767,1.139V45.214L41.139,44.67Z" transform="translate(-34.024 -37.242)"/><path class="b" d="M36.36,85.34v7.242h3.379a3.843,3.843,0,0,1,6.842,0h14.53a3.267,3.267,0,0,1,6,0h4.5V86.364Z" transform="translate(-30.314 -71.149)"/><path class="c" d="M221.149,60.368c1.312.045,1.222,2.138,0,1.916A.982.982,0,0,1,221.149,60.368Z" transform="translate(-183.736 -50.329)"/><path class="d" d="M222.469,105.378c1.312.045,1.222,2.138,0,1.917A.983.983,0,0,1,222.469,105.378Z" transform="translate(-184.836 -87.855)"/><path class="c" d="M52.856,54.548c1.312.047,1.222,2.14,0,1.917A.983.983,0,0,1,52.856,54.548Z" transform="translate(-43.427 -45.477)"/><path class="d" d="M52.677,99.568c1.312.045,1.222,2.138,0,1.916A.982.982,0,0,1,52.677,99.568Z" transform="translate(-43.277 -83.011)"/><path class="a" d="M176.543,17.681,164.71,17.7s1.47-4.794,6.517-4.794A5.091,5.091,0,0,1,176.543,17.681Z" transform="translate(-137.322 -10.763)"/><path class="b" d="M51.7,12.017l7.448.175a8.418,8.418,0,0,0-5.5-5.672,2.154,2.154,0,0,1-3.505.08A7.3,7.3,0,0,0,51.7,12.017Z" transform="translate(-41.787 -5.435)"/><path class="c" d="M107.135,3.009a8.335,8.335,0,0,0-2.77,3.929L95.9,6.753A8.972,8.972,0,0,0,93.32,2.535S100.721-3.48,107.135,3.009Z" transform="translate(-77.803 0.003)"/><path class="a" d="M0,45.086,5.575,46.1l.156-2.654L0,43.25Z" transform="translate(0 -36.058)"/><circle class="d" cx="2.361" cy="2.361" r="2.361" transform="translate(30.46 22.723) rotate(-45)"/><circle class="d" cx="2.82" cy="2.82" r="2.82" transform="translate(10.027 20.362)"/><path class="e" d="M300.15,28.17h11.806v3.545h-7.592v3.118h5.544V38.14h-5.544V44.8H300.15Zm16.681,0h4.14l6.64,16.628H323.3l-1.33-3.425h-6.142L314.5,44.8h-4.333Zm4.094,9.977-2.024-5.6-2.045,5.592Zm8.352-9.977h7.473a6.636,6.636,0,0,1,4.579,1.475,5.41,5.41,0,0,1,1.663,4.237,5.873,5.873,0,0,1-.81,3.159,4.922,4.922,0,0,1-2.283,1.952l2.95,5.8h-4.323l-2.651-5.206h-2.386V44.8h-4.212Zm6.734,7.877a3.383,3.383,0,0,0,1.95-.487,1.923,1.923,0,0,0,.69-1.678,1.918,1.918,0,0,0-.678-1.7,3.476,3.476,0,0,0-1.962-.466h-2.523v4.332Zm8.638-7.877h4.044L353.5,38.479l4.822-10.309h4.022V44.8h-3.918V36.456l-3.974,8.352h-1.9L348.6,36.456V44.8H344.65Z" transform="translate(-250.24 -23.485)"/><path class="a" d="M687.1,28.17h11.806v3.545h-7.594v3.118h5.544V38.14h-5.544v3.118h7.591V44.8H687.1Z" transform="translate(-572.848 -23.485)"/><path class="a" d="M770.561,36.476l-6-8.306h4.822l3.593,4.973,3.608-4.973h4.822l-6.021,8.314,6.021,8.319h-4.822L773,39.83,769.37,44.8H764.54Z" transform="translate(-637.411 -23.485)"/></g></svg>