<svg xmlns="http://www.w3.org/2000/svg" width="498.543" height="384.867" viewBox="0 0 498.543 384.867"><defs><style>.a,.b,.c,.s{fill:#5e7d31;}.a,.b,.c,.e,.h,.t,.u,.v{fill-rule:evenodd;}.b,.n{opacity:0.7;}.c,.m{opacity:0.5;}.d{opacity:0.6;}.e{fill:#ffb73b;}.f,.t{fill:#ceebb3;}.g{fill:#fff;}.h,.i,.m,.n,.o,.p,.q,.r{fill:#99c76e;}.j{fill:#dde3e9;}.k{fill:#f2f2f2;}.l{fill:#f0f6ea;}.o{opacity:0.2;}.p{opacity:0.4;}.q{opacity:0.3;}.r{opacity:0.8;}.u{fill:#c5cfd6;}.v{fill:#9eaf8d;}</style></defs><path class="a" d="M660.805,194.95a5.292,5.292,0,0,0-1.7-.457,27.611,27.611,0,0,0-5.316-.493,98.1,98.1,0,0,0-16.435,1.477c-3.421.59-7.557,2.58-10.96,1.5a23.333,23.333,0,0,0-17.545.9,24.588,24.588,0,0,0-11.325,12.163,30.884,30.884,0,0,0-2.133,5.451c-.169.386-.331.774-.477,1.169-.415,1.12-.787,2.26-1.133,3.4-.148.487-.519,1.563-.078,1.771a32.408,32.408,0,0,0-1.85,4.025c-1.513,4.025-3.169,8.441-3.7,12.707a19.882,19.882,0,0,0-.021,4.751c.09.783.053,2.355.583,2.951,1.126,1.262,1.7-.5,1.577-1.347-.969-6.414.9-12.438,3.119-18.467a37.947,37.947,0,0,1,6.43-10.7,26.988,26.988,0,0,1,7.355-6.408,115.043,115.043,0,0,1,11.2-5.553c2.495-1.131,4.993-2.232,7.557-3.206a7.528,7.528,0,0,1,2.1-.776c1.337,0,3.232.982,4.523,1.349,4.248,1.208,8.549,2.754,12.939,3.371a16.686,16.686,0,0,0,8.087-.988,7.557,7.557,0,0,0,1.274-.694,18.46,18.46,0,0,0,5.415-3.065,21.54,21.54,0,0,0,2.538-2.734,1.433,1.433,0,0,0,.335-.9.541.541,0,0,0,.315-.321c.192-.916-1.555-.932-2.674-.878" transform="translate(-169.936 -92.591)"/><path class="b" d="M8.5,0C7.115,0,5.736.028,4.355.1,3.3.154,1.693-.063.8.59-.124,1.268-.06,2.657.084,3.638.849,8.824,2.715,13.423,6.618,17.1c6.01,5.658,12.9,8.533,21.054,9.813,5.727.9,11.014-.349,15.231-4.4a63.057,63.057,0,0,1,6.59,18.341,43.733,43.733,0,0,1,.653,9.426c-.066,2.045-.179,4.086-.4,6.121-.1.885-.549,2.224-.2,3.06a1.406,1.406,0,0,0,2.4.239c.514-.7.419-2.065.526-2.889.174-1.37.337-2.74.453-4.116.189-2.226.328-4.46.318-6.695a49.7,49.7,0,0,0-2.68-14.831c-2.944-9.145-7.722-17.273-15.151-23.651C30.846,3.592,25.618,2,19.686,1.152A79.139,79.139,0,0,0,8.5,0" transform="translate(39.171 184.061) rotate(-39)"/><path class="c" d="M58.024,128.777a227.237,227.237,0,0,0-4.483-26.572c-1.281-5.161-2.922-10.214-4.414-15.317q.2.959.355,1.93c-.518-1.522-1.6-2.978-2.226-4.494-.7-1.691-1.255-3.449-1.785-5.195-1.037-3.409-2.016-6.823-3.182-10.192-1.3-3.753-2.8-7.445-4.193-11.166a90.471,90.471,0,0,0-3.835-9.487c-.84-1.643-1.593-3.407-2.418-5.082-.276-.56-2.645-6.82-2.627-6.82.392,0,1.861,2.783,2.1,3.191.711,1.194,1.315,2.436,1.926,3.681a16.391,16.391,0,0,1,1.339-4.284c.2-.419,1.627-3.513,2.091-3.513.231,0-1.909,5.841-2.18,6.354A10.61,10.61,0,0,0,33.72,43.2c-.232.716-.112.537.079,1.182a33.921,33.921,0,0,0,1.614,3.479,24.76,24.76,0,0,0,1.571,3.651,94.76,94.76,0,0,1,4.089,10.663A22.846,22.846,0,0,1,42.461,57.2c.154-.383,1.378-3.935,1.731-3.935.4,0-1.122,5.689-1.329,6.181-.383.913-.986,1.8-1.3,2.726-.35,1.02.264,1.937.656,2.981,1.44,3.837,2.7,7.713,3.856,11.641,6.7-2.934,8.031-11.569,8.468-17.937a44.487,44.487,0,0,0-1.51-13.715,91.661,91.661,0,0,0-6.64-17.2,61.535,61.535,0,0,0-12.47-17.22A65.805,65.805,0,0,0,25.084,3.66a18.806,18.806,0,0,0-4.84-2.495A17.505,17.505,0,0,0,17.8.568c-.629-.11-1.911-.693-2.432-.544A16.448,16.448,0,0,0,5.434,6.8,31.848,31.848,0,0,0,.819,18.407,36.943,36.943,0,0,0,.473,31.974a83.859,83.859,0,0,0,2.63,10.2C6.732,54.1,13.092,66.9,24.5,73.441a34.735,34.735,0,0,0,12,4.013c.991.155,1.982.3,2.986.359.676.038,2.9-.412,3.389-.12.671.4,1.056,2.668,1.349,3.491,2.222,6.25,4.209,12.572,6.012,18.95,1.919,6.786,3.442,13.637,4.712,20.566.539,2.946,1.065,5.889,1.513,8.851.1.689,0,2.857.669,3.466a.811.811,0,0,0,1.28-.244c.44-.82-.277-3.082-.392-4" transform="matrix(0.799, -0.602, 0.602, 0.799, 0, 85.371)"/><path class="a" d="M656.235,231.47a33.538,33.538,0,0,0-7.586-.447,47.136,47.136,0,0,0-34.784,16.5c-7.22,8.546-9.206,19.173-10.633,29.914-.141,1.066-.2,2.126-.281,3.195-.017.229-.043.434-.071.627a1.379,1.379,0,0,0-.523,1.729,71.341,71.341,0,0,0-3.179,8.337c-2.64,8.418-5.325,17-3.671,25.849a123.8,123.8,0,0,1,2.172-14.644c.056-.275.116-.548.179-.82.007-.029.013-.058.019-.086a32.006,32.006,0,0,1,1.335-4.291l.017-.046c.072-.184.148-.368.224-.551.156-.38.316-.758.486-1.136.058-.128.112-.258.166-.388.792-1.942,1.126-4.129,1.836-6.138q.254-.685.533-1.365l.034-.079c.5-1.219,1.058-2.422,1.645-3.612a4.463,4.463,0,0,0,.765-1.375,8.686,8.686,0,0,0,.634-1.226c.346-.669.69-1.337,1.038-2.006l-.031.012q.522-.963,1.045-1.916l.23-.42.373-.668c1.162-2.08,2.4-4.119,3.675-6.132.457-.719,1.548-1.749,1.758-2.555.008-.031.009-.058.014-.087a45.779,45.779,0,0,1,9.809-10.35c-.463.5-1.449,2.2-1.708,2.538-.8,1.03-1.663,1.99-2.531,2.961a62.983,62.983,0,0,0-4.424,5.433,103.258,103.258,0,0,0-6.611,10.851c-.018.021-.04.042-.058.065a26.361,26.361,0,0,0-2.377,4.558c2.882-1.335,6.069-2.2,9.026-3.389a74.176,74.176,0,0,0,8.589-4.042,95.951,95.951,0,0,0,10.979-7,43.505,43.505,0,0,0,10.294-9.448c3.5-4.226,6.7-8.489,8.687-13.62a40.865,40.865,0,0,0,2.2-7.811c.02-.115.045-.241.073-.372a25.63,25.63,0,0,0,1.229-2.819c.553-1.524,1.862-3.2-.592-3.736" transform="translate(-171.95 -103.24)"/><path class="a" d="M12.649,27.937a9.927,9.927,0,0,0-.391,3.333c.021.286.261,2.365.493,2.365.541,0-.2-5.364-.1-5.7M3.233,23.255c.033-.014.629-1.158.824-1.491.415-.707.858-1.4,1.313-2.07a13.494,13.494,0,0,0-2.137,3.561m31.96,34.066c.507.428.229,1.5-.372.906-.485-.477-.5-.43-1.11-.4-.5.025-1.023.179-1.521.24a16.478,16.478,0,0,1-3.169.11,21.878,21.878,0,0,1-6.6-1.545A34.267,34.267,0,0,1,12.1,50.594,42.158,42.158,0,0,1,1.5,34.818c-1.366-3.571-2.1-7.156-.86-10.87A12.512,12.512,0,0,1,3.664,18.93c.373-.365.864-.647,1.213-1.029.536-.588.413-.4.065-1.239q-.571-1.375-1.133-2.753a71.649,71.649,0,0,1-2.66-7.336A20.567,20.567,0,0,1,.6,4.074C.5,3.436-.072,1.011.429.359,1.263-.726,1.619.94,1.646,1.51c.023.5.067,1,.129,1.5a21.9,21.9,0,0,0,.81,3.682c.4,1.3.888,2.58,1.373,3.854.453,1.188.928,2.368,1.411,3.544q.4.981.812,1.958c.093.223.141.689.386.5A33.55,33.55,0,0,0,8.7,20.564c.888,1.6,1.794,3.2,2.815,4.725a38.512,38.512,0,0,0,2.36,3.2,20.131,20.131,0,0,0,1.589,1.7c.309.295,1.366,1.563,1.792,1.563-.183,0-1.012-1.61-1.141-1.8-.516-.761-1.076-1.486-1.648-2.207a42.658,42.658,0,0,1-2.936-4.181c.257-.152,1.325.552,1.644.688a16.479,16.479,0,0,0,2.2.766,18.074,18.074,0,0,0,4.254.757,7.857,7.857,0,0,1-1.682-.8,20.808,20.808,0,0,0-1.972-.732c-.618-.193-1.246-.34-1.879-.475a9.214,9.214,0,0,1-2.354-.477c-.035-.021,0-.347-.135-.434s-.531-.059-.563-.083c-.472-.355-.8-1.381-1.086-1.886-.737-1.31-1.455-2.629-2.179-3.945-.225-.407-.523-.687-.326-1.017.211-.352,1.207-.57,1.6-.7a9.109,9.109,0,0,1,4.417-.385,16.358,16.358,0,0,1,7.483,3.42c8.461,6.625,15.4,14.962,17.52,25.547.877,4.382,1.822,11.217-3.284,13.518" transform="translate(103.046 150.162) rotate(122)"/><g class="d" transform="translate(27.063 218.211)"><path class="e" d="M471.274,104.09c6.873,46.524-159.8,76.871-303.259,55.692S-41.257,55.9,27.2,11.837,464.4,57.567,471.274,104.09Z" transform="translate(0 0)"/></g><g transform="translate(97.821 16.5)"><rect class="f" width="113" height="215" rx="8" transform="translate(0.179 0.5)"/><circle class="g" cx="10.5" cy="10.5" r="10.5" transform="translate(46.179 181.5)"/><g transform="translate(45.964 11.786)"><ellipse class="g" cx="1" cy="1.5" rx="1" ry="1.5" transform="translate(0.214 -0.286)"/><rect class="g" width="15" height="3" rx="1.5" transform="translate(6.214 -0.286)"/></g><g transform="translate(8.25 22.393)"><g transform="translate(0 0)"><rect class="g" width="94" height="36" rx="4" transform="translate(-0.071 0.107)"/><g transform="translate(29.247 9.955)"><rect class="f" width="51.991" height="5.769" rx="2.884"/><rect class="f" width="34.898" height="5.769" rx="2.884" transform="translate(0 9.615)"/></g><circle class="f" cx="8.5" cy="8.5" r="8.5" transform="translate(7.929 8.107)"/></g><g transform="translate(0 42.429)"><rect class="g" width="94" height="31" rx="4" transform="translate(-0.071 -0.321)"/><g transform="translate(29.247 9.119)"><rect class="f" width="51.991" height="4.487" rx="2.243"/><rect class="f" width="34.898" height="4.487" rx="2.243" transform="translate(0 7.478)"/></g><circle class="f" cx="8.5" cy="8.5" r="8.5" transform="translate(7.929 6.679)"/></g><g transform="translate(0 77.786)"><rect class="g" width="94" height="29" rx="4" transform="translate(-0.071 0.321)"/><g transform="translate(29.247 9.372)"><rect class="f" width="51.991" height="4.487" rx="2.243"/><rect class="f" width="34.898" height="4.487" rx="2.243" transform="translate(0 7.478)"/></g><ellipse class="f" cx="8.5" cy="8" rx="8.5" ry="8" transform="translate(7.929 7.321)"/></g><g transform="translate(0 114.321)"><rect class="g" width="94" height="30" rx="4" transform="translate(-0.071 -0.214)"/><g transform="translate(29.247 8.447)"><rect class="f" width="51.991" height="4.487" rx="2.243"/><rect class="f" width="34.898" height="4.487" rx="2.243" transform="translate(0 7.478)"/></g><ellipse class="f" cx="8.5" cy="9" rx="8.5" ry="9" transform="translate(7.929 4.786)"/></g></g></g><g transform="translate(110.391 35.357)"><g transform="translate(0 155.79)"><path class="h" d="M9.8,0C8.854,0,7.913.019,6.971.068,6.252.106,5.155-.043,4.547.4c-.632.465-.588,1.417-.489,2.089A15.157,15.157,0,0,0,8.515,11.72a25.745,25.745,0,0,0,14.362,6.726,11.664,11.664,0,0,0,10.39-3.018A43.351,43.351,0,0,1,37.761,28a30.12,30.12,0,0,1,.446,6.461c-.045,1.4-.122,2.8-.272,4.2a4.966,4.966,0,0,0-.137,2.1.957.957,0,0,0,1.64.164,4.709,4.709,0,0,0,.359-1.98c.12-.939.23-1.878.309-2.821.129-1.526.224-3.057.217-4.589a34.213,34.213,0,0,0-1.828-10.166A34.9,34.9,0,0,0,28.158,5.15C25.042,2.462,21.476,1.374,17.429.789A53.792,53.792,0,0,0,9.8,0" transform="translate(-1.151)"/><path class="h" d="M23.2,35C13.014,35,6.155,43.208,2.912,51.738,1.69,54.953,1.4,58.484.932,61.86A15.453,15.453,0,0,1,.4,65.56c-.16.35-.526.476-.351.953a.774.774,0,0,0,.626.523c.641.118,1.546-.58,2.1-.855,4.555-2.285,7.548-5.817,9.99-10.139a43.152,43.152,0,0,0,3.948-8.4,29.039,29.039,0,0,0,1.057-5.552,21.145,21.145,0,0,0,.141-2.224,4.484,4.484,0,0,0-.59-1.758,15.006,15.006,0,0,1,10.676-.3A13.68,13.68,0,0,1,35.3,44.412a12.608,12.608,0,0,1,.9,2.436,8.381,8.381,0,0,0,.41,1.755c.636,1.2,1.973.4,1.845-.72a14.469,14.469,0,0,0-4.425-8.423A15.918,15.918,0,0,0,23.2,35" transform="translate(0 -10.073)"/></g><rect class="i" width="113" height="217" rx="8" transform="translate(34.609 -0.357)"/><circle class="g" cx="11" cy="11" r="11" transform="translate(79.609 180.643)"/><g transform="translate(79.359 11.786)"><ellipse class="g" cx="1.5" cy="1" rx="1.5" ry="1" transform="translate(0.25 -0.143)"/><rect class="g" width="15" height="2" rx="1" transform="translate(7.25 -0.143)"/></g><g transform="translate(44.002 21.214)"><g transform="translate(0 0)"><rect class="g" width="93" height="37" rx="4" transform="translate(-0.393 0.429)"/><g transform="translate(6.565 10.794)"><rect class="f" width="51.991" height="5.769" rx="2.884"/><rect class="f" width="34.898" height="5.769" rx="2.884" transform="translate(0 9.615)"/></g><g transform="translate(77.786 14.143)"><ellipse class="j" cx="5.5" cy="4.5" rx="5.5" ry="4.5" transform="translate(-0.179 0.286)"/><circle class="k" cx="2" cy="2" r="2" transform="translate(3.821 2.286)"/></g></g><g transform="translate(0 43.607)"><rect class="g" width="93" height="30" rx="4" transform="translate(-0.393 -0.178)"/><g transform="translate(27.931 8.78)"><rect class="f" width="51.991" height="4.487"/><rect class="f" width="34.898" height="4.487" transform="translate(0 7.478)"/></g><ellipse class="f" cx="9.5" cy="9" rx="9.5" ry="9" transform="translate(5.607 5.822)"/></g><g transform="translate(0 80.143)"><rect class="g" width="93" height="28" rx="4" transform="translate(-0.393 0.286)"/><g transform="translate(6.565 7.854)"><rect class="f" width="51.991" height="4.487" rx="2.243"/><rect class="i" width="34.898" height="4.487" rx="2.243" transform="translate(0 7.478)"/></g><g transform="translate(77.786 8.25)"><circle class="j" cx="5.5" cy="5.5" r="5.5" transform="translate(-0.179 0.036)"/><ellipse class="k" cx="2" cy="2.5" rx="2" ry="2.5" transform="translate(3.821 3.036)"/></g></g><g transform="translate(0 115.5)"><rect class="g" width="93" height="28" rx="4" transform="translate(-0.393 -0.071)"/><g transform="translate(27.931 8.107)"><rect class="f" width="51.991" height="4.487" rx="2.243"/><rect class="f" width="34.898" height="4.487" rx="2.243" transform="translate(0 7.478)"/></g><ellipse class="f" cx="9.5" cy="8" rx="9.5" ry="8" transform="translate(5.607 5.929)"/></g></g></g><g transform="translate(191.583 53.691)"><rect class="l" width="238" height="247" rx="8" transform="translate(0.417 0.309)"/><rect class="g" width="48" height="56" rx="8" transform="translate(177.417 31.309)"/><g transform="translate(184.382 41.773)"><circle class="f" cx="11" cy="11" r="11" transform="translate(7.036 -0.464)"/><rect class="f" width="35" height="4" rx="2" transform="translate(0.036 25.536)"/><rect class="f" width="23" height="4" rx="2" transform="translate(6.036 32.536)"/></g><path class="h" d="M5.7,0H232.891a5.7,5.7,0,0,1,5.7,5.7V19.23H0V5.7A5.7,5.7,0,0,1,5.7,0Z" transform="translate(0 0)"/><g transform="translate(6.417 6.416)"><circle class="k" cx="3" cy="3" r="3" transform="translate(0 -0.107)"/><ellipse class="k" cx="2.5" cy="3" rx="2.5" ry="3" transform="translate(9 -0.107)"/><ellipse class="k" cx="1.5" cy="3" rx="1.5" ry="3" transform="translate(18 -0.107)"/></g><g transform="translate(177.31 93.63)"><rect class="g" width="48" height="139" rx="8" transform="translate(0.107 -0.321)"/><g transform="translate(12.964 12.964)"><rect class="m" width="23" height="19" rx="4" transform="translate(0.143 -0.286)"/><rect class="n" width="23" height="20" rx="4" transform="translate(0.143 23.714)"/><rect class="o" width="23" height="17" rx="4" transform="translate(0.143 48.714)"/><rect class="p" width="23" height="18" rx="4" transform="translate(0.143 94.714)"/><rect class="q" width="23" height="19" rx="4" transform="translate(0.143 70.714)"/></g></g><g transform="translate(11.132 31.166)"><g transform="translate(0 0)"><rect class="g" width="160" height="33" rx="4" transform="translate(0.286 0.143)"/><g transform="translate(6.674 10.213)"><rect class="f" width="118.938" height="5.021" rx="2.511"/><rect class="f" width="79.835" height="5.021" rx="2.511" transform="translate(0 8.368)"/></g><g transform="translate(138.399 11.922)"><circle class="f" cx="4.985" cy="4.985" r="4.985"/><circle class="k" cx="2.137" cy="2.137" r="2.137" transform="translate(2.849 2.849)"/></g></g><g transform="translate(0 40.071)"><rect class="g" width="160" height="28" rx="4" transform="translate(0.286 0.071)"/><g transform="translate(6.674 7.604)"><rect class="f" width="118.938" height="4.166" rx="2.083"/><rect class="f" width="79.835" height="4.166" rx="2.083" transform="translate(0 6.944)"/></g><g transform="translate(138.399 8.173)"><path class="f" d="M4.985,0A4.985,4.985,0,1,1,0,4.985,4.985,4.985,0,0,1,4.985,0Z"/><circle class="k" cx="2.137" cy="2.137" r="2.137" transform="translate(2.849 2.849)"/></g></g><g transform="translate(0 73.071)"><rect class="g" width="160" height="28" rx="4" transform="translate(0.286 0.071)"/><g transform="translate(6.674 8.077)"><rect class="f" width="118.938" height="4.166" rx="2.083"/><rect class="f" width="79.835" height="4.166" rx="2.083" transform="translate(0 6.944)"/></g><g transform="translate(138.399 8.647)"><circle class="f" cx="4.985" cy="4.985" r="4.985"/><circle class="i" cx="2.137" cy="2.137" r="2.137" transform="translate(2.849 2.849)"/></g></g><g transform="translate(0 172.071)"><rect class="g" width="160" height="29" rx="4" transform="translate(0.286 0.071)"/><g transform="translate(6.674 9.498)"><rect class="f" width="118.938" height="4.166" rx="2.083"/><rect class="f" width="79.835" height="4.166" rx="2.083" transform="translate(0 6.944)"/></g><g transform="translate(138.399 10.068)"><circle class="f" cx="4.985" cy="4.985" r="4.985"/><circle class="k" cx="2.137" cy="2.137" r="2.137" transform="translate(2.849 2.849)"/></g></g><g transform="translate(0 140.25)"><rect class="g" width="160" height="28" rx="4" transform="translate(0.286 -0.107)"/><g transform="translate(6.674 7.846)"><rect class="f" width="118.938" height="4.166" rx="2.083"/><rect class="f" width="79.835" height="4.166" rx="2.083" transform="translate(0 6.944)"/></g><g transform="translate(138.399 8.416)"><circle class="f" cx="4.985" cy="4.985" r="4.985"/><circle class="k" cx="2.137" cy="2.137" r="2.137" transform="translate(2.849 2.849)"/></g></g><g transform="translate(0 106.071)"><rect class="g" width="160" height="28" rx="4" transform="translate(0.286 0.071)"/><g transform="translate(6.674 8.551)"><rect class="f" width="118.938" height="4.166" rx="2.083"/><rect class="f" width="79.835" height="4.166" rx="2.083" transform="translate(0 6.944)"/></g><g transform="translate(138.399 9.121)"><circle class="f" cx="4.985" cy="4.985" r="4.985"/><circle class="k" cx="2.137" cy="2.137" r="2.137" transform="translate(2.849 2.849)"/></g></g></g></g><path class="h" d="M651.152,296.4c-2.81-1.905-6.545-2.4-9.907-2.4-13.13,0-25.472,4.872-36.134,12.13a84.5,84.5,0,0,0-15.682,14.315,41.928,41.928,0,0,0-6.72,10,34.449,34.449,0,0,0-2.441,7.7,79.109,79.109,0,0,0-1.385,9.833c-.091,1.3-.844,8.174,1.311,8.291a2.908,2.908,0,0,0,0,.476c-4.68,7.317-7.571,15.892-10.252,24.022a163.572,163.572,0,0,0-5.76,21.529,234.472,234.472,0,0,0-3.5,29.191c-.119,2.1-.2,4.2-.271,6.305q-.09,2.691-.179,5.383a34.625,34.625,0,0,0-.1,6.324c.278,1.741,1.785,1.477,1.852-.255.081-2.092.067-4.188.159-6.281q.183-4.167.383-8.334a194.849,194.849,0,0,1,11.05-56.533,131.825,131.825,0,0,1,9.6-21.18A147.638,147.638,0,0,1,594.958,339.7a109.071,109.071,0,0,1,13.4-14.844,103.026,103.026,0,0,1,13.182-9.692,144.629,144.629,0,0,1,18.055-10.207c3.3-1.484,6.661-2.813,9.986-4.238.6-.256,1.239-.5,1.815-.8,1.919-.99,1.288-2.481-.241-3.518" transform="translate(-161.878 -121.371)"/><path class="h" d="M41.438,42.733a36.259,36.259,0,0,1-14.971-2.808,66.575,66.575,0,0,1-11.843-6.877A37.17,37.17,0,0,1,2.294,19.326C.558,15.915-.716,11.089.45,7.368,1.823,2.987,5.6-.668,10.563.1c3.072.477,5.887,2.511,8.222,4.424a31.1,31.1,0,0,1,6.875,8.1C28.671,17.615,30.44,23.253,33,28.465c1.214,2.473,2.387,4.964,3.84,7.315a11.817,11.817,0,0,0,2.578,3.182c.584.463,3.047,1.263,2.105,2.3,13.81-.181,26.044-10.787,28.7-23.916.246-1.224.439-2.457.644-3.689.128-.777.076-3.644.771-4.141,1.533-1.1.889,2.233.823,2.712q-.254,1.858-.541,3.711A30.889,30.889,0,0,1,62.9,33.7a31.421,31.421,0,0,1-21.461,9.033" transform="translate(477.889 285.158) rotate(180)"/><g transform="translate(368.893 0)"><rect class="i" width="5" height="17" rx="2.5" transform="translate(0.107 24)"/><path class="q" d="M2.272,0A2.272,2.272,0,0,1,4.544,2.272V27.718a2.272,2.272,0,0,1-4.544,0V2.272A2.272,2.272,0,0,1,2.272,0Z" transform="translate(10.976 11.181)"/><path class="m" d="M2.272,0A2.272,2.272,0,0,1,4.544,2.272v29.99a2.272,2.272,0,0,1-4.544,0V2.272A2.272,2.272,0,0,1,2.272,0Z" transform="translate(20.064 6.637)"/><rect class="r" width="3" height="29" rx="1.5" transform="translate(31.107 12)"/><rect class="s" width="4" height="41" rx="2" transform="translate(41.107 0)"/></g><g transform="translate(47.717 232.455) rotate(180)"><path class="a" d="M14.244,10.5A14.38,14.38,0,0,1,0,24.927V10.5L9.734,0A14.3,14.3,0,0,1,14.244,10.5Z" transform="translate(14.244 3.561)"/><path class="h" d="M14.385,14.244H0A14.254,14.254,0,0,1,3.915,4.51,14.5,14.5,0,0,1,14.385,0a14.7,14.7,0,0,1,9.83,3.877Z" transform="translate(0.236)"/><path class="t" d="M0,0A14.288,14.288,0,0,0,14.244,14.244V0ZM21.366,14.244l-5.7-12.82,12.82,5.7A13.1,13.1,0,0,1,21.366,14.244Z" transform="translate(0 14.244)"/></g><g transform="translate(455.811 198.269)"><path class="t" d="M26.9,26.479a7.487,7.487,0,1,1-5.464-12.591V0a21.366,21.366,0,1,0,0,42.732,21.145,21.145,0,0,0,15.6-6.765Z" transform="translate(0)"/><path class="a" d="M30,0V13.888a7.478,7.478,0,0,1,7.478,7.478H51.366A21.432,21.432,0,0,0,30,0Z" transform="translate(-8.634)"/><path class="h" d="M38.918,30A7.578,7.578,0,0,1,36,35.976l8.733,11.117A21.66,21.66,0,0,0,53.093,30Z" transform="translate(-10.361 -8.634)"/></g><g transform="translate(326.19 8.11)"><path class="t" d="M20.69,20.3a5.75,5.75,0,1,1-4.2-9.653V0A16.485,16.485,0,0,0,0,16.381,16.485,16.485,0,0,0,16.488,32.761a16.291,16.291,0,0,0,12-5.186Z"/><path class="a" d="M23,0V10.647a5.733,5.733,0,0,1,5.733,5.733H39.381A16.431,16.431,0,0,0,23,0Z" transform="translate(-6.619 0)"/><path class="h" d="M30.188,23A5.683,5.683,0,0,1,28,27.482l6.55,8.338A16.245,16.245,0,0,0,40.82,23Z" transform="translate(-8.058 -6.619)"/></g><g transform="translate(478.017 357.091) rotate(180)"><path class="u" d="M.01.023C.007.016,0,.009,0,0,0,.007.01.036.01.023" transform="translate(50.689 12.094)"/><path class="u" d="M0,.007A.061.061,0,0,1,0,0C0,.007.013.028,0,.007" transform="translate(50.691 12.099)"/><path class="u" d="M.1.239C.086.21.073.183.061.155l.017.04C-.07-.176.024.065.1.239" transform="translate(50.647 11.988)"/><path class="u" d="M.032.067.015.027c-.041-.08.017.04.017.04" transform="translate(50.679 12.074)"/><path class="u" d="M0,0Z" transform="translate(50.694 12.107)"/><path class="u" d="M0,0S0,0,0,0,0,0,0,0" transform="translate(50.694 12.106)"/><path class="u" d="M0,0c-.009-.017.04.065,0,0" transform="translate(50.686 12.093)"/><path class="u" d="M0,0,0,0S0,0,0,0" transform="translate(50.693 12.106)"/><path class="f" d="M3.635,0h93.6a3.635,3.635,0,0,1,3.635,3.635V62.706a3.635,3.635,0,0,1-3.635,3.635H3.635A3.635,3.635,0,0,1,0,62.706V3.635A3.635,3.635,0,0,1,3.635,0Z" transform="translate(0 0.574)"/><g transform="translate(8.44)"><path class="h" d="M29.24,47.718,0,0H58.479Z" transform="translate(0)"/><path class="v" d="M25.85,34.936,0,0H51.7Z" transform="translate(33.538)"/></g><circle class="g" cx="10" cy="10" r="10" transform="translate(69.017 34.091)"/></g><g transform="translate(120.867 49.015) rotate(180)"><path class="u" d="M.007.015,0,0S.007.024.007.015" transform="translate(33.932 8.096)"/><path class="u" d="M0,0A.041.041,0,0,1,0,0S.009.019,0,0" transform="translate(33.933 8.099)"/><path class="u" d="M.064.16C.057.141.049.123.041.1L.053.13C-.047-.118.016.044.064.16" transform="translate(33.903 8.025)"/><path class="u" d="M.021.045.01.018C-.018-.035.021.045.021.045" transform="translate(33.925 8.082)"/><path class="u" d="M0,0Z" transform="translate(33.935 8.104)"/><path class="u" d="M0,0V0" transform="translate(33.935 8.104)"/><path class="u" d="M0,0C-.005-.01.027.045,0,0" transform="translate(33.93 8.096)"/><path class="u" d="M0,0,0,0,0,0" transform="translate(33.935 8.104)"/><path class="f" d="M2.433,0h62.66a2.433,2.433,0,0,1,2.433,2.433V41.976a2.433,2.433,0,0,1-2.433,2.433H2.433A2.433,2.433,0,0,1,0,41.976V2.433A2.433,2.433,0,0,1,2.433,0Z" transform="translate(0 0.384)"/><g transform="translate(5.65)"><path class="h" d="M19.573,31.943,0,0H39.147Z" transform="translate(0)"/><path class="v" d="M17.3,23.387,0,0H34.608Z" transform="translate(22.451)"/></g><ellipse class="g" cx="6.692" cy="6.083" rx="6.692" ry="6.083" transform="translate(46.234 23.502)"/></g></svg>